# xmcd
#
# Track frame offsets:
#	150
#	16595
#	33670
#	52083
#	73449
#	89939
#	108774
#	135834
#	150957
#	159494
#
# Disc length: 2524 seconds
#
# Revision: 0
# Processed by: cddbd v1.5.1PL0 Copyright (c) Steve Scherf et al.
# Submitted via: dBpowerAMP V4.0
#
DISCID=7c09da0a
DTITLE=Salty Dogs - The Salty Dogs and Friends
DYEAR=2004
DGENRE=Country
TTITLE0=Lifetime of Love
TTITLE1=Thanks for the Memories
TTITLE2=Comfort and Rest
TTITLE3=Let's Try Again
TTITLE4=How Can I Get Over You
TTITLE5=The Halloween Song
TTITLE6=Oversize Load
TTITLE7=This Happy New Year (Ain't So Happy at All)
TTITLE8=Outcast
TTITLE9=A Way to Survive
EXTD=
EXTT0=
EXTT1=
EXTT2=
EXTT3=
EXTT4=
EXTT5=
EXTT6=
EXTT7=
EXTT8=
EXTT9=
PLAYORDER=
